<?xml version="1.0" encoding="utf-8"?>
<!-- Generator: Adobe Illustrator 21.0.0, SVG Export Plug-In . SVG Version: 6.00 Build 0)  -->
<svg version="1.1" id="Layer_1" xmlns="http://www.w3.org/2000/svg" xmlns:xlink="http://www.w3.org/1999/xlink" x="0px" y="0px"
	 viewBox="0 0 1080 1920" style="enable-background:new 0 0 1080 1920;" xml:space="preserve">
<style type="text/css">
	.st0{fill:#3498DB;}
	.st1{display:none;}
	.st2{display:inline;}
	.st3{fill:#FFFFFF;}
	.st4{fill:none;stroke:#000000;stroke-width:5;stroke-miterlimit:10;}
	.st5{fill:none;stroke:#000000;stroke-width:0.8692;stroke-miterlimit:10;}
</style>
<rect class="st0" width="1080" height="1920"/>
<g id="XMLID_1_" class="st1">
	<g class="st2">
		<path d="M-175.5,261.5l-7,4c0,0,1-62-23-110l7-12C-198.5,143.5-170.5,200.5-175.5,261.5z"/>
		<path d="M-417.5,497.5c0,0-77,6-146-43c0,0,23,4,34-2c0,0,61,34,104,32l-5,7C-430.5,491.5-423.5,497.5-417.5,497.5z"/>
		<path class="st3" d="M-254.7,416.4c4.5-7.4,26.2-48,26.2-81.8c0,0,38-50,46-69l7-4c0,0-4,102-72,162L-254.7,416.4z"/>
		<polygon class="st3" points="-463.5,346.5 -486.5,241.5 -407.8,165.8 -307.5,201.5 -286.5,309.5 -362.5,375.5 		"/>
		<path class="st3" d="M-617.5,303.5c16,40,69,81,69,81c2,29,19,68,19,68c-11,6-34,2-34,2c-92-64-99-148-99-148L-617.5,303.5z"/>
		<path d="M-642.5,131.5c45-87,133-118,133-118v46c-37,0-84,69-84,69C-608.3,118.6-641.7,131.2-642.5,131.5z"/>
		<path class="st3" d="M-268.5,133.5c17,1,63,22,63,22c24,48,23,110,23,110c-8,19-46,69-46,69l-58-25l-21-108L-268.5,133.5z"/>
		<path class="st3" d="M-580.5,221.5c0,0-11-65-13-93c0,0,47-69,84-69c0,0,55-8,89,22l12,84l0.7,0.3l-78.7,75.7L-580.5,221.5z"/>
		<path d="M-420.5,81.5c0.1,0,0.2-0.1,0.2-0.1c2.6-1.4,5.3-2.7,7.9-3.9c0.1-0.1,0.2-0.1,0.3-0.1c13.5-6.1,42.5-16.8,79.6-16.8
			c41,24,64,73,64,73l-39,68l-100.3-35.7l-0.7-0.3L-420.5,81.5z"/>
		<path class="st3" d="M-332.5,60.5c0,0-37.8-2.6-79.6,16.8c-0.1,0.1-0.2,0.1-0.3,0.1c-4.4,2-7.1,3.5-7.9,3.9
			c-0.1,0-0.2,0.1-0.2,0.1c-34-30-89-22-89-22v-46c110-34,180,8,180,8C-334.5,50.5-332.5,60.5-332.5,60.5z"/>
		<path class="st3" d="M-205.5,155.5c0,0-46-21-63-22c0,0-23-49-64-73c0,0-2-10,3-39c0,0,79,17,131,122L-205.5,155.5z"/>
		<path class="st3" d="M-580.5,221.5c-25,30-37,82-37,82l-45,3c0,0-34-79,20-175c0,0,0,0,0,0c0.8-0.3,34.2-12.9,49-3
			C-591.5,156.5-580.5,221.5-580.5,221.5z"/>
		<path d="M-548.5,384.5c0,0-53-41-69-81c0,0,12-52,37-82l94,20l23,105L-548.5,384.5z"/>
		<path class="st3" d="M-425.5,484.5c0,0,31,3,81-38c0,0,59-5,89-29c0.1-0.1,0.3-0.5,0.8-1.2l7.2,7.2c0,0-63,71-170,74
			c-6,0-13-6-13-6L-425.5,484.5z"/>
		<path d="M-228.5,334.5c0,33.9-21.8,74.4-26.2,81.8c-0.4,0.7-0.7,1.1-0.8,1.2c-30,24-89,29-89,29l-18-71l76-66L-228.5,334.5z"/>
		<path class="st3" d="M-344.5,446.5c-50,41-81,38-81,38c-43,2-104-32-104-32s-17-39-19-68l85-38l101,29L-344.5,446.5z"/>
	</g>
	<g class="st2">
		<path class="st4" d="M-412.1,77.3c13.5-6.1,42.5-16.8,79.6-16.8c0,0-2-10,3-39c0,0-70-42-180-8v46c0,0,55-8,89,22"/>
		<path class="st4" d="M-420.3,81.4c0.8-0.4,3.5-1.9,7.9-3.9"/>
		<path class="st4" d="M-420.5,81.5l12,84l0.7,0.3l100.3,35.7l39-68c0,0-23-49-64-73c0,0-37.8-2.6-79.6,16.8
			c-0.1,0.1-0.2,0.1-0.3,0.1c-2.6,1.2-5.2,2.5-7.9,3.9C-420.3,81.4-420.4,81.5-420.5,81.5z"/>
		<path class="st4" d="M-407.5,165.5l-0.3,0.3l-78.7,75.7l23,105l-85,38c0,0-53-41-69-81c0,0,12-52,37-82l94,20"/>
		<path class="st4" d="M-580.5,221.5c0,0-11-65-13-93c0,0,47-69,84-69"/>
		<path class="st4" d="M-642.5,131.5C-642.5,131.5-642.5,131.5-642.5,131.5c0.8-0.3,34.2-12.9,49-3"/>
		<path class="st4" d="M-509.5,13.5c0,0-88,31-133,118"/>
		<path class="st4" d="M-617.5,303.5l-45,3c0,0-34-79,20-175"/>
		<path class="st4" d="M-662.5,306.5c0,0,7,84,99,148c0,0,23,4,34-2c0,0-17-39-19-68"/>
		<path class="st4" d="M-529.5,452.5c0,0,61,34,104,32l-5,7c0,0,7,6,13,6c0,0-77,6-146-43"/>
		<path class="st4" d="M-463.5,346.5l101,29l18,71c-50,41-81,38-81,38"/>
		<path class="st4" d="M-344.5,446.5c0,0,59-5,89-29c0.1-0.1,0.3-0.5,0.8-1.2c4.5-7.4,26.2-48,26.2-81.8l-58-25l-76,66"/>
		<line class="st4" x1="-286.5" y1="309.5" x2="-307.5" y2="201.5"/>
		<path class="st4" d="M-228.5,334.5c0,0,38-50,46-69c0,0,1-62-23-110c0,0-46-21-63-22"/>
		<path class="st4" d="M-329.5,21.5c0,0,79,17,131,122l-7,12"/>
		<path class="st4" d="M-198.5,143.5c0,0,28,57,23,118l-7,4"/>
		<path class="st4" d="M-175.5,261.5c0,0-4,102-72,162l-7.2-7.2"/>
		<path class="st4" d="M-247.5,423.5c0,0-63,71-170,74"/>
	</g>
</g>
<g id="argentina">
	<path id="a_4_" class="st3" d="M231.9,922.6c6.7,0,12.2,0.8,16.7,2.3c4.5,1.5,8,3.7,10.7,6.5c2.7,2.8,4.6,6.3,5.7,10.3
		c1.1,4,1.7,8.6,1.7,13.5v47.1c-3.2,0.7-7.7,1.5-13.5,2.5c-5.8,1-12.8,1.4-21,1.4c-5.2,0-9.8-0.5-14-1.4c-4.2-0.9-7.8-2.4-10.9-4.5
		c-3-2.1-5.4-4.8-7-8.1c-1.6-3.3-2.4-7.4-2.4-12.3c0-4.7,0.9-8.6,2.8-11.8c1.9-3.2,4.4-5.8,7.5-7.7c3.1-1.9,6.7-3.3,10.8-4.2
		c4-0.9,8.2-1.3,12.6-1.3c2.9,0,5.5,0.1,7.8,0.4c2.3,0.3,4.1,0.6,5.5,1v-2.1c0-3.8-1.2-6.9-3.5-9.3c-2.3-2.3-6.4-3.5-12.1-3.5
		c-3.8,0-7.6,0.3-11.4,0.8c-3.7,0.6-7,1.3-9.7,2.4l-2.9-18.2c1.3-0.4,3-0.8,4.9-1.3c2-0.5,4.1-0.9,6.5-1.2c2.3-0.4,4.8-0.7,7.4-0.9
		C226.6,922.8,229.2,922.6,231.9,922.6z M233.7,988.8c2.2,0,4.4,0,6.4-0.2c2-0.1,3.6-0.3,4.9-0.5v-17.2c-0.9-0.2-2.3-0.4-4.1-0.6
		c-1.8-0.2-3.5-0.3-5-0.3c-2.1,0-4.1,0.1-6,0.4c-1.9,0.3-3.5,0.7-4.9,1.4c-1.4,0.7-2.5,1.7-3.3,2.9c-0.8,1.2-1.2,2.7-1.2,4.6
		c0,3.5,1.2,6,3.6,7.4C226.3,988.1,229.5,988.8,233.7,988.8z"/>
	<path id="r_1_" class="st3" d="M335.3,944.8c-2-0.5-4.4-1-7.1-1.6c-2.7-0.6-5.7-0.8-8.8-0.8c-1.4,0-3.1,0.1-5.1,0.4
		c-2,0.3-3.5,0.5-4.5,0.8v61h-22.6V929c4-1.4,8.8-2.8,14.3-4c5.5-1.3,11.7-1.9,18.4-1.9c1.2,0,2.7,0.1,4.4,0.2
		c1.7,0.2,3.4,0.4,5.2,0.6c1.7,0.3,3.4,0.6,5.2,0.9c1.7,0.4,3.2,0.8,4.4,1.3L335.3,944.8z"/>
	<path id="g" class="st3" d="M418.6,994.6c0,13.1-3.3,22.7-9.9,29.1c-6.6,6.3-16.9,9.5-30.7,9.5c-4.9,0-9.7-0.4-14.6-1.3
		c-4.9-0.9-9.4-2-13.5-3.4l3.9-19c3.5,1.4,7.3,2.5,11.2,3.3c3.9,0.8,8.3,1.2,13.3,1.2c6.5,0,11.1-1.4,13.7-4.3c2.7-2.8,4-6.5,4-10.9
		V996c-2.4,1.1-4.9,2-7.5,2.5c-2.6,0.6-5.4,0.8-8.4,0.8c-11,0-19.5-3.3-25.4-9.8c-5.9-6.5-8.8-15.7-8.8-27.4c0-5.9,0.9-11.2,2.7-16
		c1.8-4.8,4.5-8.9,8-12.4c3.5-3.4,7.8-6.1,12.8-8c5.1-1.9,10.8-2.8,17.2-2.8c2.7,0,5.5,0.1,8.4,0.4c2.9,0.3,5.7,0.6,8.6,1
		c2.8,0.4,5.5,0.9,8.1,1.4c2.6,0.6,4.9,1.1,6.9,1.7V994.6z M369,962.1c0,12.7,5.1,19,15.3,19c2.3,0,4.5-0.3,6.5-0.9
		c2-0.6,3.7-1.3,5.2-2.1v-36.1c-1.1-0.2-2.4-0.4-3.9-0.5c-1.5-0.2-3.3-0.2-5.3-0.2c-6,0-10.4,2-13.4,5.9
		C370.4,951,369,956,369,962.1z"/>
	<path id="e" class="st3" d="M436.1,965.3c0-7.1,1.1-13.3,3.3-18.6c2.2-5.3,5-9.7,8.6-13.3c3.5-3.5,7.6-6.2,12.2-8
		c4.6-1.8,9.3-2.7,14.2-2.7c11.3,0,20.3,3.5,26.9,10.4c6.6,6.9,9.9,17.1,9.9,30.6c0,1.3-0.1,2.8-0.2,4.3c-0.1,1.6-0.2,3-0.3,4.2
		h-51.3c0.5,4.7,2.7,8.4,6.5,11.1c3.8,2.7,9,4.1,15.5,4.1c4.1,0,8.2-0.4,12.2-1.1c4-0.8,7.3-1.7,9.8-2.8l3,18.4
		c-1.2,0.6-2.8,1.2-4.9,1.8c-2,0.6-4.3,1.1-6.8,1.6c-2.5,0.5-5.1,0.8-8,1.1c-2.8,0.3-5.7,0.5-8.5,0.5c-7.2,0-13.4-1.1-18.8-3.2
		c-5.3-2.1-9.7-5-13.2-8.7c-3.5-3.7-6.1-8.1-7.7-13.1C436.9,976.6,436.1,971.2,436.1,965.3z M489.2,956.6c-0.1-1.9-0.4-3.8-1-5.6
		c-0.6-1.8-1.4-3.4-2.6-4.9c-1.2-1.4-2.6-2.6-4.4-3.5c-1.8-0.9-4-1.4-6.6-1.4c-2.5,0-4.7,0.4-6.5,1.3c-1.8,0.9-3.3,2-4.6,3.4
		c-1.2,1.4-2.2,3.1-2.8,4.9c-0.7,1.9-1.1,3.8-1.4,5.7H489.2z"/>
	<path id="n_1_" class="st3" d="M528.5,927.5c3.8-1.1,8.8-2.1,14.9-3.1c6.1-1,12.5-1.4,19.1-1.4c6.8,0,12.4,0.9,16.9,2.7
		c4.5,1.8,8.1,4.3,10.7,7.5c2.6,3.2,4.5,7.1,5.6,11.5c1.1,4.5,1.7,9.4,1.7,14.9v45.1h-22.6v-42.4c0-7.3-1-12.5-2.9-15.5
		c-1.9-3-5.5-4.6-10.8-4.6c-1.6,0-3.3,0.1-5.2,0.2s-3.4,0.3-4.9,0.5v61.6h-22.6V927.5z"/>
	<path id="t" class="st3" d="M617.2,904.9l22.6-3.6v23.5H667v18.8h-27.2v28.1c0,4.8,0.8,8.6,2.5,11.4c1.7,2.8,5,4.3,10.1,4.3
		c2.4,0,4.9-0.2,7.5-0.7c2.6-0.5,4.9-1.1,7.1-1.9l3.2,17.6c-2.7,1.1-5.8,2.1-9.1,2.9c-3.3,0.8-7.4,1.2-12.3,1.2
		c-6.2,0-11.3-0.8-15.3-2.5c-4-1.7-7.3-4-9.7-7c-2.4-3-4.1-6.6-5.1-10.9c-1-4.3-1.4-9-1.4-14.1V904.9z"/>
	<path id="i" class="st3" d="M710.1,901.7c0,4.2-1.3,7.4-4,9.8c-2.7,2.4-5.8,3.6-9.5,3.6c-3.6,0-6.8-1.2-9.5-3.6
		c-2.7-2.4-4-5.6-4-9.8c0-4.1,1.3-7.4,4-9.8c2.7-2.4,5.8-3.6,9.5-3.6c3.6,0,6.8,1.2,9.5,3.6C708.8,894.3,710.1,897.5,710.1,901.7z
		 M708,1004.6h-22.6v-79.9H708V1004.6z"/>
	<path id="n" class="st3" d="M729.3,927.5c3.8-1.1,8.8-2.1,14.9-3.1c6.1-1,12.5-1.4,19.1-1.4c6.8,0,12.4,0.9,16.9,2.7
		c4.5,1.8,8.1,4.3,10.7,7.5c2.6,3.2,4.5,7.1,5.6,11.5c1.1,4.5,1.7,9.4,1.7,14.9v45.1h-22.6v-42.4c0-7.3-1-12.5-2.9-15.5
		c-1.9-3-5.5-4.6-10.8-4.6c-1.6,0-3.3,0.1-5.2,0.2s-3.4,0.3-4.9,0.5v61.6h-22.6V927.5z"/>
	<path id="a_3_" class="st3" d="M847.4,922.6c6.7,0,12.2,0.8,16.7,2.3c4.5,1.5,8,3.7,10.7,6.5c2.7,2.8,4.6,6.3,5.7,10.3
		c1.1,4,1.7,8.6,1.7,13.5v47.1c-3.2,0.7-7.7,1.5-13.5,2.5c-5.8,1-12.8,1.4-21,1.4c-5.2,0-9.8-0.5-14-1.4c-4.2-0.9-7.8-2.4-10.9-4.5
		c-3-2.1-5.4-4.8-7-8.1c-1.6-3.3-2.4-7.4-2.4-12.3c0-4.7,0.9-8.6,2.8-11.8c1.9-3.2,4.4-5.8,7.5-7.7c3.1-1.9,6.7-3.3,10.8-4.2
		c4-0.9,8.2-1.3,12.6-1.3c2.9,0,5.5,0.1,7.8,0.4c2.3,0.3,4.1,0.6,5.5,1v-2.1c0-3.8-1.2-6.9-3.5-9.3c-2.3-2.3-6.4-3.5-12.1-3.5
		c-3.8,0-7.6,0.3-11.4,0.8c-3.7,0.6-7,1.3-9.7,2.4l-2.9-18.2c1.3-0.4,3-0.8,4.9-1.3s4.1-0.9,6.5-1.2c2.3-0.4,4.8-0.7,7.4-0.9
		C842.1,922.8,844.8,922.6,847.4,922.6z M849.2,988.8c2.2,0,4.4,0,6.4-0.2c2-0.1,3.6-0.3,4.9-0.5v-17.2c-0.9-0.2-2.3-0.4-4.1-0.6
		c-1.8-0.2-3.5-0.3-5-0.3c-2.1,0-4.1,0.1-6,0.4c-1.9,0.3-3.5,0.7-4.9,1.4c-1.4,0.7-2.5,1.7-3.3,2.9c-0.8,1.2-1.2,2.7-1.2,4.6
		c0,3.5,1.2,6,3.6,7.4C841.8,988.1,845.1,988.8,849.2,988.8z"/>
</g>
<g id="maradona">
	<g id="football">
		<g>
			<path d="M718.8,943.1c0,0,4.9,9.9,4,20.5l-1.2,0.7c0,0,0.2-10.8-4-19.1L718.8,943.1z"/>
			<path class="st3" d="M721.6,964.3l1.2-0.7c0,0-0.7,17.7-12.5,28.2l-1.3-1.2c0.8-1.3,4.6-8.3,4.6-14.2
				C713.6,976.3,720.2,967.6,721.6,964.3z"/>
			<path class="st3" d="M717.6,945.2c4.2,8.3,4,19.1,4,19.1c-1.4,3.3-8,12-8,12l-10.1-4.3l-3.7-18.8l6.8-11.8
				C709.6,941.5,717.6,945.2,717.6,945.2z"/>
			<path class="st3" d="M718.8,943.1l-1.2,2.1c0,0-8-3.7-11-3.8c0,0-4-8.5-11.1-12.7c0,0-0.3-1.7,0.5-6.8
				C696.1,921.9,709.8,924.8,718.8,943.1z"/>
			<path d="M703.5,971.9l10.1,4.3c0,5.9-3.8,12.9-4.6,14.2c-0.1,0.1-0.1,0.2-0.1,0.2c-5.2,4.2-15.5,5-15.5,5l-3.1-12.3L703.5,971.9z
				"/>
			<path class="st3" d="M709.1,990.5l1.3,1.2c0,0-11,12.3-29.6,12.9c-1,0-2.3-1-2.3-1l0.9-1.2c0,0,5.4,0.5,14.1-6.6
				c0,0,10.3-0.9,15.5-5C708.9,990.7,709,990.6,709.1,990.5z"/>
			<path d="M682.5,947l-0.1,0l-2.1-14.6c0,0,0,0,0,0c0.5-0.2,0.9-0.5,1.4-0.7c0,0,0,0,0.1,0c2.4-1.1,7.4-2.9,13.8-2.9
				c7.1,4.2,11.1,12.7,11.1,12.7l-6.8,11.8L682.5,947z"/>
			<polygon class="st3" points="699.9,953.2 703.5,971.9 690.3,983.4 672.8,978.4 668.8,960.1 682.5,947 			"/>
			<path class="st3" d="M696.1,921.9c-0.9,5-0.5,6.8-0.5,6.8s-6.6-0.5-13.8,2.9c0,0,0,0-0.1,0c-0.8,0.3-1.2,0.6-1.4,0.7c0,0,0,0,0,0
				c-5.9-5.2-15.5-3.8-15.5-3.8v-8C683.9,914.6,696.1,921.9,696.1,921.9z"/>
			<path class="st3" d="M690.3,983.4l3.1,12.3c-8.7,7.1-14.1,6.6-14.1,6.6c-7.5,0.3-18.1-5.6-18.1-5.6s-3-6.8-3.3-11.8l14.8-6.6
				L690.3,983.4z"/>
			<path class="st3" d="M682.5,947l-13.7,13.2l-16.3-3.5c0,0-1.9-11.3-2.3-16.2c0,0,8.2-12,14.6-12c0,0,9.6-1.4,15.5,3.8l2.1,14.6
				L682.5,947z"/>
			<path d="M680.8,1004.6c0,0-13.4,1-25.4-7.5c0,0,4,0.7,5.9-0.3c0,0,10.6,5.9,18.1,5.6l-0.9,1.2
				C678.5,1003.6,679.7,1004.6,680.8,1004.6z"/>
			<path d="M668.8,960.1l4,18.3L658,985c0,0-9.2-7.1-12-14.1c0,0,2.1-9,6.4-14.3L668.8,960.1z"/>
			<path d="M664.8,920.5v8c-6.4,0-14.6,12-14.6,12c-2.6-1.7-8.4,0.5-8.5,0.5C649.5,925.9,664.8,920.5,664.8,920.5z"/>
			<path class="st3" d="M658,985c0.3,5,3.3,11.8,3.3,11.8c-1.9,1-5.9,0.3-5.9,0.3c-16-11.1-17.2-25.7-17.2-25.7l7.8-0.5
				C648.8,977.9,658,985,658,985z"/>
			<path class="st3" d="M650.2,940.5c0.3,4.9,2.3,16.2,2.3,16.2c-4.3,5.2-6.4,14.3-6.4,14.3l-7.8,0.5c0,0-5.9-13.7,3.5-30.4
				c0,0,0,0,0,0C641.8,940.9,647.6,938.8,650.2,940.5z"/>
		</g>
		<g>
			<path class="st5" d="M681.7,931.6c2.4-1.1,7.4-2.9,13.8-2.9c0,0-0.3-1.7,0.5-6.8c0,0-12.2-7.3-31.3-1.4v8c0,0,9.6-1.4,15.5,3.8"
				/>
			<path class="st5" d="M680.3,932.3c0.1-0.1,0.6-0.3,1.4-0.7"/>
			<path class="st5" d="M680.2,932.3l2.1,14.6l0.1,0l17.4,6.2l6.8-11.8c0,0-4-8.5-11.1-12.7c0,0-6.6-0.5-13.8,2.9c0,0,0,0-0.1,0
				C681.2,931.8,680.7,932,680.2,932.3C680.3,932.3,680.3,932.3,680.2,932.3z"/>
			<path class="st5" d="M682.5,946.9L682.5,946.9l-13.7,13.2l4,18.3L658,985c0,0-9.2-7.1-12-14.1c0,0,2.1-9,6.4-14.3l16.3,3.5"/>
			<path class="st5" d="M652.4,956.6c0,0-1.9-11.3-2.3-16.2c0,0,8.2-12,14.6-12"/>
			<path class="st5" d="M641.7,941C641.7,941,641.7,941,641.7,941c0.1-0.1,5.9-2.2,8.5-0.5"/>
			<path class="st5" d="M664.8,920.5c0,0-15.3,5.4-23.1,20.5"/>
			<path class="st5" d="M646,970.9l-7.8,0.5c0,0-5.9-13.7,3.5-30.4"/>
			<path class="st5" d="M638.2,971.4c0,0,1.2,14.6,17.2,25.7c0,0,4,0.7,5.9-0.3c0,0-3-6.8-3.3-11.8"/>
			<path class="st5" d="M661.3,996.8c0,0,10.6,5.9,18.1,5.6l-0.9,1.2c0,0,1.2,1,2.3,1c0,0-13.4,1-25.4-7.5"/>
			<path class="st5" d="M672.8,978.4l17.6,5l3.1,12.3c-8.7,7.1-14.1,6.6-14.1,6.6"/>
			<path class="st5" d="M693.5,995.8c0,0,10.3-0.9,15.5-5c0,0,0.1-0.1,0.1-0.2c0.8-1.3,4.6-8.3,4.6-14.2l-10.1-4.3l-13.2,11.5"/>
			<line class="st5" x1="703.5" y1="971.9" x2="699.9" y2="953.2"/>
			<path class="st5" d="M713.6,976.3c0,0,6.6-8.7,8-12c0,0,0.2-10.8-4-19.1c0,0-8-3.7-11-3.8"/>
			<path class="st5" d="M696.1,921.9c0,0,13.7,3,22.8,21.2l-1.2,2.1"/>
			<path class="st5" d="M718.8,943.1c0,0,4.9,9.9,4,20.5l-1.2,0.7"/>
			<path class="st5" d="M722.8,963.6c0,0-0.7,17.7-12.5,28.2l-1.3-1.2"/>
			<path class="st5" d="M710.3,991.8c0,0-11,12.3-29.6,12.9"/>
		</g>
	</g>
	<path id="m" class="st3" d="M234.8,962.3c0-7.3-0.9-12.5-2.8-15.5c-1.9-3-5.1-4.6-9.6-4.6c-1.4,0-2.9,0.1-4.4,0.2
		c-1.5,0.2-3,0.3-4.4,0.5v61.6h-22.6v-77.1c1.9-0.5,4.2-1,6.8-1.6c2.6-0.6,5.3-1.1,8.2-1.5c2.9-0.5,5.8-0.8,8.9-1.1
		c3-0.3,6-0.4,9-0.4c5.8,0,10.5,0.7,14,2.2c3.6,1.5,6.6,3.2,8.9,5.2c3.2-2.3,7-4.1,11.2-5.5c4.2-1.3,8.1-2,11.6-2
		c6.4,0,11.6,0.9,15.7,2.7c4.1,1.8,7.4,4.3,9.8,7.5c2.4,3.2,4.1,7.1,5,11.5c0.9,4.5,1.4,9.4,1.4,14.9v45.1h-22.6v-42.4
		c0-7.3-0.9-12.5-2.8-15.5c-1.9-3-5.1-4.6-9.6-4.6c-1.2,0-2.9,0.3-5.1,0.9c-2.2,0.6-4,1.4-5.4,2.3c0.7,2.3,1.2,4.8,1.4,7.4
		c0.2,2.6,0.3,5.3,0.3,8.3v43.6h-22.6V962.3z"/>
	<path id="a_2_" class="st3" d="M350.5,922.7c6.7,0,12.2,0.8,16.7,2.3c4.5,1.5,8,3.7,10.7,6.5c2.7,2.8,4.6,6.3,5.7,10.3
		c1.1,4,1.7,8.6,1.7,13.5v47.1c-3.2,0.7-7.7,1.5-13.5,2.5s-12.8,1.4-21,1.4c-5.2,0-9.8-0.5-14-1.4c-4.2-0.9-7.8-2.4-10.9-4.5
		c-3-2.1-5.4-4.8-7-8.1c-1.6-3.3-2.4-7.4-2.4-12.3c0-4.7,0.9-8.6,2.8-11.8c1.9-3.2,4.4-5.8,7.5-7.7c3.1-1.9,6.7-3.3,10.8-4.2
		c4-0.9,8.2-1.3,12.6-1.3c2.9,0,5.5,0.1,7.8,0.4c2.3,0.3,4.1,0.6,5.5,1v-2.1c0-3.8-1.2-6.9-3.5-9.3c-2.3-2.3-6.4-3.5-12.1-3.5
		c-3.8,0-7.6,0.3-11.4,0.8c-3.7,0.6-7,1.3-9.7,2.4l-2.9-18.2c1.3-0.4,3-0.8,4.9-1.3c2-0.5,4.1-0.9,6.5-1.2c2.3-0.4,4.8-0.7,7.4-0.9
		C345.3,922.8,347.9,922.7,350.5,922.7z M352.3,988.9c2.2,0,4.4,0,6.4-0.2c2-0.1,3.6-0.3,4.9-0.5v-17.2c-0.9-0.2-2.3-0.4-4.1-0.6
		c-1.8-0.2-3.5-0.3-5-0.3c-2.1,0-4.1,0.1-6,0.4c-1.9,0.3-3.5,0.7-4.9,1.4c-1.4,0.7-2.5,1.7-3.3,2.9c-0.8,1.2-1.2,2.7-1.2,4.6
		c0,3.5,1.2,6,3.6,7.4C344.9,988.2,348.2,988.9,352.3,988.9z"/>
	<path id="r" class="st3" d="M453.9,944.8c-2-0.5-4.4-1-7.1-1.6c-2.7-0.6-5.7-0.8-8.8-0.8c-1.4,0-3.1,0.1-5.1,0.4
		c-2,0.3-3.5,0.5-4.5,0.8v61h-22.6V929c4-1.4,8.8-2.8,14.3-4c5.5-1.3,11.7-1.9,18.4-1.9c1.2,0,2.7,0.1,4.4,0.2
		c1.7,0.2,3.4,0.4,5.2,0.6c1.7,0.3,3.4,0.6,5.2,0.9c1.7,0.4,3.2,0.8,4.4,1.3L453.9,944.8z"/>
	<path id="a_1_" class="st3" d="M497,922.7c6.7,0,12.2,0.8,16.7,2.3c4.5,1.5,8,3.7,10.7,6.5c2.7,2.8,4.6,6.3,5.7,10.3
		c1.1,4,1.7,8.6,1.7,13.5v47.1c-3.2,0.7-7.7,1.5-13.5,2.5s-12.8,1.4-21,1.4c-5.2,0-9.8-0.5-14-1.4c-4.2-0.9-7.8-2.4-10.9-4.5
		c-3-2.1-5.4-4.8-7-8.1c-1.6-3.3-2.4-7.4-2.4-12.3c0-4.7,0.9-8.6,2.8-11.8c1.9-3.2,4.4-5.8,7.5-7.7c3.1-1.9,6.7-3.3,10.8-4.2
		c4-0.9,8.2-1.3,12.6-1.3c2.9,0,5.5,0.1,7.8,0.4c2.3,0.3,4.1,0.6,5.5,1v-2.1c0-3.8-1.2-6.9-3.5-9.3c-2.3-2.3-6.4-3.5-12.1-3.5
		c-3.8,0-7.6,0.3-11.4,0.8c-3.7,0.6-7,1.3-9.7,2.4l-2.9-18.2c1.3-0.4,3-0.8,4.9-1.3c2-0.5,4.1-0.9,6.5-1.2c2.3-0.4,4.8-0.7,7.4-0.9
		C491.8,922.8,494.4,922.7,497,922.7z M498.9,988.9c2.2,0,4.4,0,6.4-0.2c2-0.1,3.6-0.3,4.9-0.5v-17.2c-0.9-0.2-2.3-0.4-4.1-0.6
		c-1.8-0.2-3.5-0.3-5-0.3c-2.1,0-4.1,0.1-6,0.4c-1.9,0.3-3.5,0.7-4.9,1.4c-1.4,0.7-2.5,1.7-3.3,2.9c-0.8,1.2-1.2,2.7-1.2,4.6
		c0,3.5,1.2,6,3.6,7.4C491.4,988.2,494.7,988.9,498.9,988.9z"/>
	<path id="d" class="st3" d="M622.8,1002.1c-2,0.6-4.4,1.2-7,1.7c-2.6,0.6-5.4,1-8.3,1.4c-2.9,0.4-5.8,0.7-8.8,1
		c-3,0.3-5.8,0.4-8.6,0.4c-6.6,0-12.5-1-17.6-2.9s-9.5-4.7-13.1-8.3c-3.5-3.6-6.3-7.9-8.1-13.1c-1.9-5.1-2.8-10.9-2.8-17.2
		c0-6.5,0.8-12.3,2.4-17.5c1.6-5.2,3.9-9.6,7-13.3c3-3.6,6.8-6.4,11.2-8.4c4.4-1.9,9.4-2.9,15.1-2.9c3.1,0,5.9,0.3,8.4,0.9
		c2.5,0.6,5,1.5,7.5,2.6v-36.1l22.6-3.6V1002.1z M571.6,964.1c0,7,1.6,12.6,4.7,16.9c3.1,4.3,7.8,6.4,14,6.4c2,0,3.9-0.1,5.6-0.2
		c1.7-0.2,3.1-0.3,4.3-0.5v-41.1c-1.4-0.9-3.3-1.7-5.5-2.3s-4.6-0.9-6.9-0.9C576.9,942.3,571.6,949.5,571.6,964.1z"/>
	<path id="n_2_" class="st3" d="M736.2,927.5c3.8-1.1,8.8-2.1,14.9-3.1c6.1-1,12.5-1.4,19.1-1.4c6.8,0,12.4,0.9,16.9,2.7
		c4.5,1.8,8.1,4.3,10.7,7.5c2.6,3.2,4.5,7.1,5.6,11.5c1.1,4.5,1.7,9.4,1.7,14.9v45.1h-22.6v-42.4c0-7.3-1-12.5-2.9-15.5
		c-1.9-3-5.5-4.6-10.8-4.6c-1.6,0-3.3,0.1-5.2,0.2c-1.8,0.2-3.4,0.3-4.9,0.5v61.6h-22.6V927.5z"/>
	<path id="a" class="st3" d="M854.3,922.7c6.7,0,12.2,0.8,16.7,2.3c4.5,1.5,8,3.7,10.7,6.5c2.7,2.8,4.6,6.3,5.7,10.3
		c1.1,4,1.7,8.6,1.7,13.5v47.1c-3.2,0.7-7.7,1.5-13.5,2.5s-12.8,1.4-21,1.4c-5.2,0-9.8-0.5-14-1.4c-4.2-0.9-7.8-2.4-10.9-4.5
		c-3-2.1-5.4-4.8-7-8.1c-1.6-3.3-2.4-7.4-2.4-12.3c0-4.7,0.9-8.6,2.8-11.8c1.9-3.2,4.4-5.8,7.5-7.7c3.1-1.9,6.7-3.3,10.8-4.2
		c4-0.9,8.2-1.3,12.6-1.3c2.9,0,5.5,0.1,7.8,0.4c2.3,0.3,4.1,0.6,5.5,1v-2.1c0-3.8-1.2-6.9-3.5-9.3c-2.3-2.3-6.4-3.5-12.1-3.5
		c-3.8,0-7.6,0.3-11.4,0.8c-3.7,0.6-7,1.3-9.7,2.4l-2.9-18.2c1.3-0.4,3-0.8,4.9-1.3s4.1-0.9,6.5-1.2c2.3-0.4,4.8-0.7,7.4-0.9
		C849.1,922.8,851.7,922.7,854.3,922.7z M856.1,988.9c2.2,0,4.4,0,6.4-0.2c2-0.1,3.6-0.3,4.9-0.5v-17.2c-0.9-0.2-2.3-0.4-4.1-0.6
		c-1.8-0.2-3.5-0.3-5-0.3c-2.1,0-4.1,0.1-6,0.4c-1.9,0.3-3.5,0.7-4.9,1.4c-1.4,0.7-2.5,1.7-3.3,2.9c-0.8,1.2-1.2,2.7-1.2,4.6
		c0,3.5,1.2,6,3.6,7.4C848.7,988.2,852,988.9,856.1,988.9z"/>
</g>
</svg>
